HIERARCHY
ROOT Hips
{
 OFFSET 0.000000 0.000000 0.000000
 CHANNELS 6 Xposition Yposition Zposition Yrotation Xrotation Zrotation
 JOINT Chest
 {
  OFFSET 0.000000 9.585900 0.002600
  CHANNELS 3 Yrotation Xrotation Zrotation
  JOINT Chest2
  {
   OFFSET 0.000000 9.601200 -0.005300
   CHANNELS 3 Yrotation Xrotation Zrotation
   JOINT Chest3
   {
    OFFSET 0.000000 9.561800 0.000000
    CHANNELS 3 Yrotation Xrotation Zrotation
    JOINT Chest4
    {
     OFFSET 0.000000 9.552100 0.000000
     CHANNELS 3 Yrotation Xrotation Zrotation
     JOINT Neck
     {
      OFFSET 0.000000 14.453000 0.000000
      CHANNELS 3 Yrotation Xrotation Zrotation
      JOINT Head
      {
       OFFSET 0.000000 8.936500 -0.011300
       CHANNELS 3 Yrotation Xrotation Zrotation
       End Site
       {
        OFFSET 0.000000 17.073600 -0.006000
       }
      }
     }
     JOINT RightCollar
     {
      OFFSET -2.921100 9.558500 0.000000
      CHANNELS 3 Yrotation Xrotation Zrotation
      JOINT RightShoulder
      {
       OFFSET -13.519700 0.000000 0.000000
       CHANNELS 3 Yrotation Xrotation Zrotation
       JOINT RightElbow
       {
        OFFSET 0.000000 -29.696600 0.000000
        CHANNELS 3 Yrotation Xrotation Zrotation
        JOINT RightWrist
        {
         OFFSET 0.000000 -24.004700 0.000000
         CHANNELS 3 Yrotation Xrotation Zrotation
         End Site
         {
          OFFSET 0.000000 -17.728500 0.000000
         }
        }
       }
      }
     }
     JOINT LeftCollar
     {
      OFFSET 2.921100 9.558500 0.000000
      CHANNELS 3 Yrotation Xrotation Zrotation
      JOINT LeftShoulder
      {
       OFFSET 13.519700 0.000000 0.000000
       CHANNELS 3 Yrotation Xrotation Zrotation
       JOINT LeftElbow
       {
        OFFSET 0.000000 -29.696600 0.000000
        CHANNELS 3 Yrotation Xrotation Zrotation
        JOINT LeftWrist
        {
         OFFSET 0.000000 -24.004700 0.000000
         CHANNELS 3 Yrotation Xrotation Zrotation
         End Site
         {
          OFFSET 0.000000 -17.728500 0.000000
         }
        }
       }
      }
     }
    }
   }
  }
 }
 JOINT RightHip
 {
  OFFSET -7.771700 -0.012900 -0.001300
  CHANNELS 3 Yrotation Xrotation Zrotation
  JOINT RightKnee
  {
   OFFSET 0.000000 -40.869800 0.001200
   CHANNELS 3 Yrotation Xrotation Zrotation
   JOINT RightAnkle
   {
    OFFSET 0.000000 -39.717900 0.002100
    CHANNELS 3 Yrotation Xrotation Zrotation
    JOINT RightToe
    {
     OFFSET 0.000000 -4.965400 11.033500
     CHANNELS 3 Yrotation Xrotation Zrotation
     End Site
     {
      OFFSET 0.000000 -1.423100 5.872300
     }
    }
   }
  }
 }
 JOINT LeftHip
 {
  OFFSET 7.771700 -0.012900 -0.001300
  CHANNELS 3 Yrotation Xrotation Zrotation
  JOINT LeftKnee
  {
   OFFSET 0.000000 -40.869800 0.001200
   CHANNELS 3 Yrotation Xrotation Zrotation
   JOINT LeftAnkle
   {
    OFFSET 0.000000 -39.717900 0.002100
    CHANNELS 3 Yrotation Xrotation Zrotation
    JOINT LeftToe
    {
     OFFSET 0.000000 -4.965400 11.033500
     CHANNELS 3 Yrotation Xrotation Zrotation
     End Site
     {
      OFFSET 0.000000 -1.423100 5.872300
     }
    }
   }
  }
 }
}
MOTION
Frames: 5
Frame Time: 0.008333
0.000000 85.388000 0.000000 0.000000 -5.767877 0.000000 0.000000 11.653817 0.000000 0.000000 -5.885947 0.000000 0.000000 -0.000000 0.000000 0.000000 -0.000000 0.000000 0.000000 12.528835 0.000000 0.000000 0.711642 0.000000 0.000000 -0.000000 0.000000 0.000000 0.000000 -90.000000 0.000000 -2.309062 0.000000 0.000000 2.309062 0.000000 0.000000 -0.000000 0.000000 0.000000 -0.000000 90.000000 0.000000 -2.309062 0.000000 0.000000 2.309062 0.000000 0.000000 8.520406 0.000000 0.000000 1.905762 0.000000 -0.000000 -4.658285 0.000000 0.000000 -0.000000 0.000000 0.000000 8.520406 0.000000 0.000000 1.905762 0.000000 -0.000000 -4.658285 0.000000 0.000000 -0.000000 0.000000
-16.884959 55.183992 27.577017 -176.655680 -32.466160 -10.889935 0.328948 14.310305 5.576036 -0.015185 8.097111 2.018190 0.036156 10.273197 2.520799 -0.018621 8.049648 2.018008 1.267535 22.090770 0.525656 1.238633 -2.123768 0.274064 3.110934 3.497839 -2.555405 -19.550406 -20.754132 3.966825 -123.311696 -52.927710 151.463365 3.810678 -15.777100 -3.658492 -8.607485 4.207230 -3.080278 2.892662 -3.553416 -1.910463 -88.929172 -68.767989 95.510646 12.073380 -16.518388 -1.119430 -18.381537 -33.950035 0.687675 31.967098 87.659544 27.205109 1.641072 -18.546143 3.634249 -0.060179 0.452447 -0.038410 -14.333062 -45.730011 13.742197 168.332210 79.154359 162.917771 -1.868378 -16.162301 2.726728 -1.066662 -2.770605 -0.478630
-16.883470 55.185448 27.576050 -176.648770 -32.473258 -10.889941 0.313859 14.234140 5.575831 -0.017605 8.128356 2.013736 0.026925 10.235889 2.522071 -0.022685 8.017568 2.012752 1.284701 22.125491 0.541571 1.253649 -2.082520 0.287346 3.115258 3.609748 -2.544933 -19.651354 -20.732717 3.956730 -123.357116 -52.673570 151.649891 3.796211 -15.793180 -3.640699 -8.603816 4.307877 -3.105705 2.904456 -3.592186 -1.893460 -88.819700 -68.770400 95.380445 12.067836 -16.582471 -1.130050 -18.384841 -33.942384 0.679982 32.143307 87.658830 27.383461 1.652556 -18.546346 3.623959 -0.061415 0.449716 -0.037536 -14.328154 -45.720429 13.732325 168.332084 79.156757 162.919748 -1.868814 -16.164602 2.727648 -1.067880 -2.768749 -0.478339
-16.882094 55.186428 27.576073 -176.642647 -32.472240 -10.886340 0.300963 14.167515 5.567393 -0.023976 8.117560 2.011294 0.023465 10.211221 2.523968 -0.032185 7.988489 2.007026 1.302096 22.165458 0.560987 1.268138 -2.035158 0.304267 3.118285 3.690146 -2.516700 -19.725266 -20.693503 3.902115 -123.410755 -52.408711 151.855179 3.788217 -15.817418 -3.593270 -8.597743 4.418136 -3.130415 2.910194 -3.597365 -1.881081 -88.911094 -68.743469 95.466149 12.088349 -16.582069 -1.139680 -18.398764 -33.944132 0.692394 31.975071 87.666810 27.218060 1.578580 -18.543925 3.635708 -0.039906 0.448235 -0.038895 -14.324651 -45.720859 13.722697 168.331505 79.159929 162.919576 -1.869787 -16.161794 2.729664 -1.068303 -2.770016 -0.478913
-16.879844 55.188941 27.574236 -176.632471 -32.482759 -10.889493 0.287412 14.128589 5.561673 -0.031959 8.071796 2.007962 0.008165 10.117517 2.517131 -0.034181 8.043692 2.006948 1.320453 22.210808 0.580758 1.279468 -1.974389 0.315443 3.117289 3.773035 -2.487027 -19.780661 -20.667957 3.830568 -123.489399 -52.134987 152.084317 3.787329 -15.841411 -3.526968 -8.587107 4.509034 -3.159455 2.918635 -3.578690 -1.861385 -89.080858 -68.705403 95.665151 12.131676 -16.526285 -1.181723 -18.402352 -33.929933 0.684654 32.114059 87.663084 27.369494 1.564464 -18.545250 3.625106 -0.046716 0.448592 -0.037145 -14.315185 -45.708742 13.708309 168.322020 79.161418 162.918399 -1.870079 -16.159202 2.727252 -1.069019 -2.773805 -0.477437
